<svg width="49" height="30" viewBox="0 0 49 30" fill="none" xmlns="http://www.w3.org/2000/svg">
<g id="shop pay-bw" clip-path="url(#clip0_2_2763)">
<path id="Vector" opacity="0.07" d="M45.1316 0H3.86842C1.67632 0 0 1.625 0 3.75V26.25C0 28.375 1.80526 30 3.86842 30H45.1316C47.3237 30 49 28.375 49 26.25V3.75C49 1.625 47.1947 0 45.1316 0Z" fill="black"/>
<g id="Group 14">
<path id="Vector_2" d="M46.1317 1.25C47.5501 1.25 48.7106 2.375 48.7106 3.75V26.25C48.7106 27.625 47.5501 28.75 46.1317 28.75H4.8685C3.45008 28.75 2.28955 27.625 2.28955 26.25V3.75C2.28955 2.375 3.45008 1.25 4.8685 1.25H46.1317Z" fill="#5A31F4"/>
<path id="Vector_3" d="M28.5714 12.1414C28.5714 14.2264 27.0537 15.7139 24.9338 15.7139H22.9364C22.9034 15.7144 22.8713 15.7241 22.8439 15.7418C22.8164 15.7596 22.7948 15.7846 22.7817 15.8139C22.7732 15.8333 22.7689 15.8541 22.7688 15.8752V18.6152C22.7688 18.6365 22.7645 18.6575 22.756 18.6772C22.7476 18.6968 22.7352 18.7147 22.7196 18.7297C22.704 18.7446 22.6855 18.7565 22.6652 18.7645C22.6449 18.7726 22.6231 18.7766 22.6012 18.7764H21.2034C21.1589 18.7764 21.1163 18.7593 21.0848 18.7288C21.0534 18.6984 21.0357 18.657 21.0357 18.6139V8.73269C21.0352 8.70049 21.0448 8.66891 21.0632 8.64212C21.0817 8.61532 21.108 8.5946 21.1389 8.58269C21.1593 8.5744 21.1812 8.57015 21.2034 8.57019H24.9429C27.0537 8.57019 28.5714 10.0577 28.5714 12.1427V12.1414ZM26.8281 12.1414C26.8281 10.9439 25.9796 10.0689 24.8294 10.0689H22.9364C22.9144 10.0689 22.8926 10.0731 22.8723 10.0813C22.8519 10.0895 22.8335 10.1014 22.8179 10.1165C22.8023 10.1316 22.79 10.1495 22.7816 10.1693C22.7731 10.189 22.7688 10.2101 22.7688 10.2314V14.0439C22.7686 14.0653 22.7728 14.0865 22.7812 14.1063C22.7896 14.126 22.8021 14.144 22.8178 14.1589C22.8333 14.1741 22.8518 14.1861 22.8722 14.1942C22.8926 14.2024 22.9144 14.2065 22.9364 14.2064H24.8294C25.9796 14.2127 26.8281 13.3377 26.8281 12.1414ZM28.9866 16.8802C28.9719 16.5599 29.0406 16.2413 29.1864 15.9536C29.3322 15.6658 29.5505 15.4184 29.8209 15.2339C30.3664 14.8389 31.2187 14.6339 32.4708 14.5914L33.8028 14.5464V14.1677C33.8028 13.4089 33.2741 13.0889 32.4257 13.0889C31.5772 13.0889 31.0395 13.3777 30.917 13.8514C30.9065 13.8847 30.8851 13.9138 30.856 13.9341C30.8269 13.9544 30.7917 13.9649 30.7558 13.9639H29.438C29.4017 13.9644 29.3662 13.9534 29.3369 13.9327C29.3076 13.912 29.2861 13.8826 29.2755 13.8489C29.2685 13.8267 29.2667 13.8032 29.2703 13.7802C29.4663 12.6577 30.436 11.8052 32.4863 11.8052C34.6681 11.8052 35.4559 12.7839 35.4559 14.6502V18.6152C35.4558 18.6366 35.4512 18.6578 35.4426 18.6776C35.4339 18.6973 35.4213 18.7152 35.4055 18.7302C35.3896 18.7452 35.3709 18.757 35.3504 18.7649C35.3298 18.7729 35.3078 18.7768 35.2857 18.7764H33.9576C33.9131 18.7764 33.8705 18.7593 33.839 18.7288C33.8076 18.6984 33.7899 18.657 33.7899 18.6139V18.3189C33.7904 18.2945 33.783 18.2704 33.769 18.2501C33.7549 18.2298 33.7348 18.2141 33.7113 18.2052C33.688 18.1963 33.6626 18.1942 33.6381 18.1991C33.6136 18.2039 33.5911 18.2156 33.5733 18.2327C33.1736 18.6502 32.5314 18.9514 31.5011 18.9514C29.986 18.9514 28.9866 18.1927 28.9866 16.8802ZM33.8028 16.0214V15.7139L32.0762 15.8014C31.1671 15.8464 30.6385 16.2089 30.6385 16.8214C30.6385 17.3764 31.1233 17.6839 31.9718 17.6839C33.1233 17.6839 33.8028 17.0839 33.8028 16.0214ZM36.7892 21.7714V20.6227C36.7896 20.5986 36.7954 20.5749 36.8063 20.5533C36.8173 20.5317 36.833 20.5127 36.8524 20.4977C36.8717 20.4826 36.8942 20.4717 36.9182 20.4659C36.9423 20.4601 36.9673 20.4594 36.9917 20.4639C37.1954 20.5002 37.4017 20.5189 37.6094 20.5189C37.9649 20.5378 38.3167 20.4401 38.608 20.2414C38.8992 20.0427 39.113 19.7548 39.2147 19.4239L39.3011 19.1602C39.314 19.1246 39.314 19.0858 39.3011 19.0502L36.5352 12.2114C36.5192 12.1739 36.5182 12.1319 36.5326 12.0937C36.5469 12.0556 36.5754 12.024 36.6126 12.0052C36.6372 11.9926 36.6647 11.9862 36.6925 11.9864H38.0336C38.068 11.9865 38.1016 11.9967 38.1299 12.0157C38.1582 12.0347 38.1799 12.0615 38.1922 12.0927L40.0697 16.9164C40.0813 16.9488 40.1031 16.9769 40.132 16.9966C40.1609 17.0163 40.1955 17.0268 40.2309 17.0264C40.2661 17.0264 40.3005 17.0158 40.3294 16.9961C40.3582 16.9764 40.3801 16.9486 40.392 16.9164L42.0232 12.1064C42.0343 12.0733 42.056 12.0444 42.0853 12.0242C42.1145 12.0039 42.1497 11.9933 42.1857 11.9939H43.5732C43.6148 11.9942 43.6549 12.009 43.6862 12.0356C43.7175 12.0623 43.7378 12.0989 43.7434 12.1389C43.7465 12.1656 43.743 12.1926 43.7331 12.2177L40.7737 19.8127C40.0929 21.5789 38.9259 22.0289 37.6403 22.0289C37.3963 22.0355 37.1527 22.0077 36.9169 21.9464C36.8774 21.937 36.8426 21.9142 36.819 21.8821C36.7953 21.85 36.7843 21.8107 36.788 21.7714H36.7892ZM12.0507 8.00019C10.2912 7.98744 8.59287 8.62533 7.30156 9.78394C7.24661 9.83238 7.21232 9.89898 7.2054 9.97066C7.19848 10.0423 7.21944 10.114 7.26416 10.1714L8.06106 11.2202C8.08688 11.2556 8.12042 11.285 8.15929 11.3063C8.19817 11.3277 8.24142 11.3405 8.28598 11.3439C8.33054 11.3472 8.37531 11.341 8.41712 11.3257C8.45892 11.3103 8.49673 11.2863 8.52785 11.2552C8.99196 10.8084 9.54314 10.4557 10.1493 10.2175C10.7554 9.97925 11.4044 9.86035 12.0584 9.86769C14.7921 9.86769 16.2196 11.8477 16.2196 13.8052C16.2196 15.9302 14.7199 17.4277 12.5639 17.4564C10.8979 17.4564 9.64195 16.3939 9.64195 14.9889C9.64338 14.6337 9.72667 14.2832 9.88574 13.9631C10.0448 13.643 10.2756 13.3614 10.5613 13.1389C10.6222 13.0906 10.6608 13.0208 10.6688 12.9449C10.6767 12.8691 10.6534 12.7932 10.6039 12.7339L9.76574 11.7152C9.74044 11.6839 9.70886 11.6578 9.67291 11.6386C9.63695 11.6195 9.59737 11.6075 9.55653 11.6036C9.51569 11.5996 9.47445 11.6037 9.43528 11.6155C9.39611 11.6274 9.35983 11.6469 9.32861 11.6727C8.81527 12.0719 8.40029 12.5771 8.11393 13.1514C7.82859 13.7245 7.68006 14.3526 7.67938 14.9889C7.67938 17.4077 9.81345 19.3039 12.5471 19.3189H12.5858C15.8314 19.2789 18.1783 16.9639 18.1783 13.8002C18.1783 10.9914 16.0287 8.00019 12.0507 8.00019Z" fill="white"/>
</g>
</g>
<defs>
<clipPath id="clip0_2_2763">
<rect width="49" height="30" fill="white"/>
</clipPath>
</defs>
</svg>
